<?xml version="1.0" encoding="utf-8"?>
<!-- Generator: Adobe Illustrator 21.0.0, SVG Export Plug-In . SVG Version: 6.00 Build 0)  -->
<svg version="1.1" id="Layer_1" xmlns="http://www.w3.org/2000/svg"  x="0px" y="0px"
	 viewBox="0 0 154.7 154.7" style="enable-background:new 0 0 154.7 154.7;" xml:space="preserve">
<style type="text/css">
	.st0{opacity:0.2;}
</style>
<g class="st0">
	<path d="M105.5,32.9c-1.1-0.9-2.3-1.8-3.6-2.5c-8.2-4.8-18-4.8-23.9-4.8s-15.9,0-24.2,4.8c-1.3,0.8-2.5,1.6-3.6,2.5
		c1.7-1,4.2-2.2,7.5-3.3c1.1-0.4,2.1-0.7,3-0.9c0.2,0,0.4-0.1,0.6-0.1c4.4-1.1,10-1.8,17-1.8C92.4,26.8,100.9,30.1,105.5,32.9z"/>
	<path d="M3.9,152.7c0.5-0.3,1.1-0.6,1.8-0.9c3.2-1.4,34.7-11.6,37.2-12.9c2.5-1.3,12.1-9.3,13.8-14.1s1.5-5,1.4-6.5
		c-0.1-1.5-6.8-9.2-7.9-15.2c-0.6-0.5-1.1-1-1.6-1.6h-7.8c-3.3,0-6-2.5-6.4-5.7c-5.6-3.3-9.3-9.3-9.3-16.3s3.7-13,9.3-16.3
		c0.2-1.5,0.8-2.8,1.8-3.8c0.9-15.1,6.4-25.7,16.3-31.4c8.9-5.1,19.3-5.1,25.5-5.1c0,0,16.4,0,25.4,5.1c9.8,5.7,15.3,16.4,16.1,31.6
		c0.9,0.9,1.4,2.2,1.6,3.5c5.6,3.3,9.3,9.3,9.3,16.3s-3.7,13-9.3,16.3c-0.4,3.2-3.1,5.7-6.4,5.7H107c-0.5,0.6-1.1,1.1-1.6,1.6
		c-1.1,6-7.8,13.7-7.9,15.2c-0.1,1.6-0.3,1.7,1.4,6.5c1.7,4.8,11.3,12.8,13.8,14.1c2.5,1.2,34.1,11.5,37.2,12.9
		c0.6,0.3,1.2,0.6,1.8,0.9c0,0,1.4,0.9,2.3,2.1h0.7V0H0v154.7h1.6C2.5,153.5,3.9,152.7,3.9,152.7z"/>
	<path d="M114.3,57.5h0.3c0.7,0,1.4,0.1,2,0.3c-0.7-8.1-2.8-14.7-6.4-19.7c2.7,4.4,5.2,11.7,4.4,13.3
		C114.2,52.2,114.2,54.6,114.3,57.5z"/>
	<path d="M39,57.8c0.6-0.2,1.2-0.3,1.8-0.3h0.3c0.1-2.9,0.1-5.3-0.3-6.1c-0.7-1.3,0.8-6.4,2.9-10.6C41.2,45.4,39.6,51.1,39,57.8z"/>
</g>
</svg>
